<svg xmlns="http://www.w3.org/2000/svg" viewBox="0 0 96 96" width="96" height="96">
  <defs>
    <linearGradient id="pa1" x1="15%" y1="0%" x2="85%" y2="100%">
      <stop offset="0%" stop-color="#893BA6"/>
      <stop offset="100%" stop-color="#6C2C91"/>
    </linearGradient>
    <linearGradient id="pa2" x1="20%" y1="0%" x2="80%" y2="100%">
      <stop offset="0%" stop-color="#B75DD2"/>
      <stop offset="100%" stop-color="#893BA6"/>
    </linearGradient>
  </defs>
  <path d="M48 4L88 28V68L48 92L8 68V28Z" fill="url(#pa1)"/>
  <path d="M48 4L88 28L48 52L8 28Z" fill="url(#pa2)"/>
  <g transform="translate(30, 24)" fill="#FFFFFF" fill-opacity="0.95">
    <path d="M8 0h12c6.6 0 12 5.4 12 12s-5.4 12-12 12h-4v20H8V0zm8 18c3.3 0 6-2.7 6-6s-2.7-6-6-6h-2v12h2z"/>
  </g>
  <path d="M58 30l-6 14h8l-10 22 6-16h-8l10-20z" fill="#FFFFFF" fill-opacity="0.7"/>
</svg>
