<svg width="34" height="33" viewBox="0 0 34 33" xmlns="http://www.w3.org/2000/svg" xml:space="preserve" overflow="visible"><g><g><g><g><g><path d="M9.93522 0 0 0 0 31.9489 6.63391 25.3164 6.63391 4.5478 6.78224 4.5478C8.46283 4.5478 9.98829 5.68135 9.98829 6.74822L9.98829 17.8823C13.7468 17.2863 16.6726 15.29 16.6726 9.02348 16.6712 1.94323 13.8434 0 9.93522 0Z" fill="#FFFFFF" fill-rule="evenodd" fill-opacity="1" transform="matrix(1.00142 0 0 1 0 0.0255)"/><path d="M32.9532 0 19.1329 0 19.1247 4.44438 27.5154 4.44438 21.7048 10.2428 21.7048 14.3878C21.7048 14.3878 23.6684 13.7795 25.4987 13.7618 27.2052 13.7414 28.7919 14.2299 28.5755 16.1935 28.2979 18.7246 27.0351 19.4132 24.9394 20.0882 23.4276 20.5767 21.4775 20.7345 19.1492 20.7713L19.1451 25.2783C19.1451 25.2783 27.0596 25.613 29.8614 23.2711 30.4724 22.7989 31.0889 22.1062 31.6046 21.2571 32.104 20.4352 32.4293 19.5969 32.5749 18.8539 32.6525 18.56 32.7055 18.2756 32.7341 18.0061 32.7491 17.9218 32.7654 17.8388 32.7776 17.7544 33.2172 14.7429 32.3095 12.0227 30.6861 11.0239L30.682 11.0239C30.3214 10.8333 29.9036 10.6973 29.4233 10.6306 28.8681 10.5557 28.2217 10.5721 27.4814 10.7095L32.9518 5.23092 32.9518 0Z" fill="#FFFFFF" fill-rule="evenodd" fill-opacity="1" transform="matrix(1.00142 0 0 1 0 0.0255)"/></g></g></g></g></g></svg>